<svg width="18" height="18" viewBox="0 0 18 18" fill="none" xmlns="http://www.w3.org/2000/svg">
<path fill-rule="evenodd" clip-rule="evenodd" d="M0.45 0.504202V5.54622H5.85V3.02521C5.85 2.68908 6.03 2.01681 6.75 2.01681V0H0.45V0.504202ZM6.8 2.71458C6.52386 2.71458 6.3 2.93844 6.3 3.21458V9.77012C6.3 10.0463 6.52386 10.2701 6.8 10.2701H11.2C11.4761 10.2701 11.7 10.0463 11.7 9.77012V3.21458C11.7 2.93844 11.4761 2.71458 11.2 2.71458H6.8ZM2.85 6.05042C2.85 5.88473 2.98431 5.75041 3.15 5.75041H4.05C4.21569 5.75041 4.35 5.88473 4.35 6.05042C4.35 6.2161 4.21569 6.35042 4.05 6.35042H3.15C2.98431 6.35042 2.85 6.2161 2.85 6.05042ZM2.4 7.24868C2.4 7.08299 2.53431 6.94868 2.7 6.94868H4.69499C4.86067 6.94868 4.99499 7.08299 4.99499 7.24868C4.99499 7.41437 4.86067 7.54868 4.69499 7.54868H2.7C2.53431 7.54868 2.4 7.41437 2.4 7.24868ZM0 9.57982H4.95C4.95 9.37582 4.95 9.25436 5.00961 9.18204C5.09734 9.07563 5.31415 9.07563 5.85 9.07562V8.06722L0 8.0246V9.57982ZM11.9303 3.8176H12.2803H17.1H17.45V4.5176H17.1H12.2803H11.9303V3.8176ZM11.9303 5.27137H12.2803H17.1H17.45V5.97137H17.1H12.2803H11.9303V5.27137ZM11.9303 6.70882H12.2803H17.1H17.45V7.40882H17.1H12.2803H11.9303V6.70882ZM5.85003 9.57983C5.85003 10.084 6.03 10.5882 6.75 10.5882H11.25C11.5134 10.5882 12.15 10.5882 12.15 9.57983H12.6V11.9425H5.34869V9.57983H5.85003ZM13.05 9.57983H18V8.06723H12.15V9.07563C12.6859 9.07564 12.9027 9.07564 12.9904 9.18205C13.05 9.25437 13.05 9.37583 13.05 9.57983ZM17.1792 10.2745H17.5292V10.6245V17.5637V17.9137H16.8292V17.5637V10.9745H13.5H13.15V10.2745H13.5H17.1792ZM9.68842 12.4588L8.30031 12.4588V13.7261H8.77316V14.8813C7.12143 14.9582 6.3252 15.8696 6.09484 16.4668C5.92826 16.5407 5.81045 16.7228 5.81045 16.9358C5.81045 17.2142 6.01192 17.44 6.26045 17.44C6.50898 17.44 6.71045 17.2142 6.71045 16.9358C6.71045 16.8009 6.66318 16.6784 6.58618 16.5879C6.77575 16.1722 7.39564 15.4536 8.77316 15.3819V16.5635C8.65252 16.654 8.5731 16.808 8.5731 16.9829C8.5731 17.2613 8.77457 17.4871 9.0231 17.4871C9.27162 17.4871 9.47309 17.2613 9.47309 16.9829C9.47309 16.7826 9.36888 16.6096 9.21789 16.5282V15.3814C10.6627 15.4535 11.2772 16.2361 11.4365 16.6411C11.3286 16.7332 11.2589 16.8787 11.2589 17.0425C11.2589 17.3209 11.4604 17.5467 11.7089 17.5467C11.9575 17.5467 12.1589 17.3209 12.1589 17.0425C12.1589 16.866 12.078 16.7107 11.9555 16.6206L11.9396 16.5674C11.7641 15.9772 10.9717 14.9592 9.21789 14.8809V13.7261H9.68842V12.4588ZM0.9 10.2382H0.55V10.5882V17.6471V17.9971H1.25V17.6471V10.9382H4.57924H4.92924V10.2382H4.57924H0.9Z" fill="#DB3839"/>
</svg>
